<svg xmlns="http://www.w3.org/2000/svg" width="500" height="500" style="width:100%;height:100%"><defs><clipPath id="e"><path d="M0 0h500v500H0z"/></clipPath><clipPath id="b"><path d="M0 0h500v500H0z"/></clipPath><clipPath id="h"><path d="M0 0h500v500H0z"/></clipPath><filter id="a" filterUnits="objectBoundingBox" x="0%" y="0%" width="100%" height="100%"><feComponentTransfer in="SourceGraphic"><feFuncA type="table" tableValues="1.0 0.0"/></feComponentTransfer></filter><filter id="c" filterUnits="objectBoundingBox" x="0%" y="0%" width="100%" height="100%"><feComponentTransfer in="SourceGraphic"><feFuncA type="table" tableValues="1.0 0.0"/></feComponentTransfer></filter><filter id="d" filterUnits="objectBoundingBox" x="0%" y="0%" width="100%" height="100%"><feComponentTransfer in="SourceGraphic"><feFuncA type="table" tableValues="1.0 0.0"/></feComponentTransfer></filter><mask id="f"><g filter="url(#a)"><g clip-path="url(#b)" display="block"><g display="block"><path stroke-linecap="round" stroke-linejoin="round" fill-opacity="0" stroke="#000" stroke-width="0" d="M366.387 226.204c12.508 7.124 18.27 22.5 12.952 36.344a29.542 29.542 0 01-17.228 17.076l.001.002c.729 4.689.269 9.624-1.561 14.378-4.797 12.463-17.455 19.567-30.127 17.837l.005.001c2.878 6.582 3.265 14.253.481 21.485-5.597 14.553-21.936 21.801-36.489 16.204-8.849-3.413-14.998-10.794-17.2-19.334-6.369 9.934-18.651 15.264-30.949 12.048-13.581-3.552-22.605-16.896-20.828-30.821.885-6.934 4.167-12.887 8.87-17.219-11.487-5.371-18.293-18.053-15.711-31.06a28.1 28.1 0 013.924-9.746c2.427-3.777 1.887-8.682-1.056-12.072-8.974-10.336-13.244-24.557-10.373-39.017 3.929-19.788 20.044-34.057 38.997-36.547 2.519-.331 4.579-2.069 5.474-4.447 4.774-12.686 18.17-20.432 31.911-17.704a27.909 27.909 0 018.264 3.042c5.307-11.648 18.073-18.554 31.172-15.954 15.295 3.037 25.239 17.893 22.202 33.188l-.018.09c-.587 2.891 2.126 5.294 4.957 4.465 4.985-1.46 10.438-1.628 15.898-.189 13.893 3.66 23.282 17.107 21.878 31.405-1.4 14.248-12.356 24.754-25.446 26.545z"/><path fill="red" d="M116.387-23.796c12.508 7.124 18.27 22.5 12.952 36.344a29.542 29.542 0 01-17.228 17.076l.001.002c.729 4.689.269 9.624-1.561 14.378-4.797 12.463-17.455 19.567-30.127 17.837l.005.001c2.878 6.582 3.265 14.253.481 21.485-5.597 14.553-21.936 21.801-36.489 16.204-8.849-3.413-14.998-10.794-17.2-19.334C20.852 90.131 8.57 95.461-3.728 92.245c-13.581-3.552-22.605-16.896-20.828-30.821.885-6.934 4.167-12.887 8.87-17.219-11.487-5.371-18.293-18.053-15.711-31.06a28.1 28.1 0 013.924-9.746c2.427-3.777 1.887-8.682-1.056-12.072-8.974-10.336-13.244-24.557-10.373-39.017C-34.973-67.478-18.858-81.747.095-84.237c2.519-.331 4.579-2.069 5.474-4.447 4.774-12.686 18.17-20.432 31.911-17.704a27.909 27.909 0 018.264 3.042c5.307-11.648 18.073-18.554 31.172-15.954 15.295 3.037 25.239 17.893 22.202 33.188l-.018.09c-.587 2.891 2.126 5.294 4.957 4.465 4.985-1.46 10.438-1.628 15.898-.189 13.893 3.66 23.282 17.107 21.878 31.405-1.4 14.248-12.356 24.754-25.446 26.545z" transform="translate(250 250)"/><path stroke-linecap="round" stroke-linejoin="round" fill-opacity="0" stroke="#000" stroke-width="0" d="M314.885 186.302s-37.657 48.337-38.288 146.391"/><path fill="red" d="M64.885-63.698S27.228-15.361 26.597 82.693" transform="translate(250 250)"/><path stroke-linecap="round" stroke-linejoin="round" fill-opacity="0" stroke="#000" stroke-width="0" d="M324.296 215.997c-22.025 2.491-31.066 14.457-31.066 14.457"/><path fill="red" d="M74.296-34.003C52.271-31.512 43.23-19.546 43.23-19.546" transform="translate(250 250)"/><g><path stroke-linecap="round" stroke-linejoin="round" fill-opacity="0" stroke="#000" stroke-width="0" d="M332.773 250.183c-36.517 7.198-52.502 32.989-52.502 32.989"/><path fill="red" d="M82.773.183C46.256 7.381 30.271 33.172 30.271 33.172" transform="translate(250 250)"/></g><g><path stroke-linecap="round" stroke-linejoin="round" fill-opacity="0" stroke="#000" stroke-width="0" d="M274.793 197.284c16.506 13.098 18.437 33.17 18.437 33.17"/><path fill="red" d="M24.793-52.716c16.506 13.098 18.437 33.17 18.437 33.17" transform="translate(250 250)"/></g><g><path stroke-linecap="round" stroke-linejoin="round" fill-opacity="0" stroke="#000" stroke-width="0" d="M253.443 227.509c19.238 14.999 26.828 55.663 26.828 55.663"/><path fill="red" d="M3.443-22.491C22.681-7.492 30.271 33.172 30.271 33.172" transform="translate(250 250)"/></g></g><g display="block"><path stroke-linecap="round" stroke-linejoin="round" fill-opacity="0" stroke="#000" stroke-width="0" d="M189.141 193.991l12.976-59.928c.661-3.053-2.98-5.162-5.299-3.069l-18.883 17.041-25.012-16.419-16.635 24.639-23.942-8.59c-2.941-1.055-5.508 2.279-3.736 4.852l34.771 50.505m61.734 193.16c9.637-1.902 16.092-11.023 14.682-20.744l-23.932-164.942c-2.211-15.24-16.737-25.521-31.845-22.539 0 0 0 0 0 0-15.108 2.982-24.639 18.009-20.894 32.947l40.527 161.667c2.388 9.528 11.825 15.513 21.462 13.611 0 0 0 0 0 0zm-59.913-167.018l17.245-3.404m27.241 46.517l14.581-2.878m-35.822 50.714l13.447-2.654"/><path fill="red" d="M-60.859-56.009l12.976-59.928c.661-3.053-2.98-5.162-5.299-3.069l-18.883 17.041-25.012-16.419-16.635 24.639-23.942-8.59c-2.941-1.055-5.508 2.279-3.736 4.852l34.771 50.505m61.734 193.16c9.637-1.902 16.092-11.023 14.682-20.744L-54.135-39.504c-2.211-15.24-16.737-25.521-31.845-22.539-15.108 2.982-24.639 18.009-20.894 32.947l40.527 161.667c2.388 9.528 11.825 15.513 21.462 13.611zm-59.913-167.018l17.245-3.404m27.241 46.517l14.581-2.878m-35.822 50.714l13.447-2.654" transform="translate(250 250)"/></g></g></g></mask><mask id="g"><g filter="url(#c)"><path fill="#FFF" d="M125.032 40.03l-2.282.031s4.125 41.939-12.109 81.114c-11.179 26.977-30.578 38.948-30.578 38.948H-80.063s-19.312-12.498-30.76-39.464c-17.136-40.365-11.739-80.599-11.739-80.599l-2.47-.03a8.84 8.84 0 01-8.84-8.84v-9.007a8.84 8.84 0 018.84-8.84h250.064a8.84 8.84 0 018.84 8.84v9.007a8.84 8.84 0 01-8.84 8.84z" transform="translate(250 250)" display="block"/></g></mask><mask id="i"><g filter="url(#d)"><g display="block"><path stroke-linecap="round" stroke-linejoin="round" fill-opacity="0" stroke="#000" stroke-width="0" d="M189.141 193.991l12.976-59.928c.661-3.053-2.98-5.162-5.299-3.069l-18.883 17.041-25.012-16.419-16.635 24.639-23.942-8.59c-2.941-1.055-5.508 2.279-3.736 4.852l34.771 50.505m61.734 193.16s0 0 0 0c-9.637 1.902-19.074-4.083-21.462-13.611l-40.527-161.667c-3.745-14.938 5.786-29.965 20.894-32.947 0 0 0 0 0 0 15.108-2.982 29.634 7.299 31.845 22.539l23.932 164.942c1.41 9.721-5.045 18.842-14.682 20.744zm-59.913-167.018l17.245-3.404m27.241 46.517l14.581-2.878m-35.822 50.714l13.447-2.654"/><path fill="red" d="M-60.859-56.009l12.976-59.928c.661-3.053-2.98-5.162-5.299-3.069l-18.883 17.041-25.012-16.419-16.635 24.639-23.942-8.59c-2.941-1.055-5.508 2.279-3.736 4.852l34.771 50.505m61.734 193.16c-9.637 1.902-19.074-4.083-21.462-13.611l-40.527-161.667c-3.745-14.938 5.786-29.965 20.894-32.947 15.108-2.982 29.634 7.299 31.845 22.539l23.932 164.942c1.41 9.721-5.045 18.842-14.682 20.744zm-59.913-167.018l17.245-3.404m27.241 46.517l14.581-2.878m-35.822 50.714l13.447-2.654" transform="translate(250 250)"/></g></g></mask></defs><g clip-path="url(#e)"><g mask="url(#f)" display="block"><path stroke-linecap="round" stroke-linejoin="round" stroke="#E88B2F" stroke-width="12.6" d="M127.201 263.34c4.51-96.94 57.77-173.46 122.8-173.46s118.29 76.52 122.8 173.46" fill="none"/></g><g mask="url(#g)" display="block"><g clip-path="url(#h)"><g mask="url(#i)" display="block"><path stroke-linecap="round" stroke-linejoin="round" stroke="#D97706" stroke-width="12.6" d="M366.387 226.204c12.508 7.124 18.27 22.5 12.952 36.344a29.542 29.542 0 01-17.228 17.076l.001.002c.729 4.689.269 9.624-1.561 14.378-4.797 12.463-17.455 19.567-30.127 17.837l.005.001c2.878 6.582 3.265 14.253.481 21.485-5.597 14.553-21.936 21.801-36.489 16.204-8.849-3.413-14.998-10.794-17.2-19.334-6.369 9.934-18.651 15.264-30.949 12.048-13.581-3.552-22.605-16.896-20.828-30.821.885-6.934 4.167-12.887 8.87-17.219-11.487-5.371-18.293-18.053-15.711-31.06a28.1 28.1 0 013.924-9.746c2.427-3.777 1.887-8.682-1.056-12.072-8.974-10.336-13.244-24.557-10.373-39.017 3.929-19.788 20.044-34.057 38.997-36.547 2.519-.331 4.579-2.069 5.474-4.447 4.774-12.686 18.17-20.432 31.911-17.704a27.909 27.909 0 018.264 3.042c5.307-11.648 18.073-18.554 31.172-15.954 15.295 3.037 25.239 17.893 22.202 33.188l-.018.09c-.587 2.891 2.126 5.294 4.957 4.465 4.985-1.46 10.438-1.628 15.898-.189 13.893 3.66 23.282 17.107 21.878 31.405-1.4 14.248-12.356 24.754-25.446 26.545zm-51.502-39.902s-37.657 48.337-38.288 146.391m47.699-116.696c-22.025 2.491-31.066 14.457-31.066 14.457m39.543 19.729c-36.517 7.198-52.502 32.989-52.502 32.989m-5.478-85.888c16.506 13.098 18.437 33.17 18.437 33.17m-39.787-2.945c19.238 14.999 26.828 55.663 26.828 55.663" fill="none"/></g><path stroke-linecap="round" stroke-linejoin="round" stroke="#D97706" stroke-width="12.6" d="M189.141 193.991l12.976-59.928c.661-3.053-2.98-5.162-5.299-3.069l-18.883 17.041-25.012-16.419-16.635 24.639-23.942-8.59c-2.941-1.055-5.508 2.279-3.736 4.852l34.771 50.505m61.734 193.16s0 0 0 0c-9.637 1.902-19.074-4.083-21.462-13.611l-40.527-161.667c-3.745-14.938 5.786-29.965 20.894-32.947 0 0 0 0 0 0 15.108-2.982 29.634 7.299 31.845 22.539l23.932 164.942c1.41 9.721-5.045 18.842-14.682 20.744zm-59.913-167.018l17.245-3.404m27.241 46.517l14.581-2.878m-35.822 50.714l13.447-2.654" fill="none" display="block"/></g></g><path stroke-linecap="round" stroke-linejoin="round" stroke="#E88B2F" stroke-width="12.6" d="M372.615 290.03s8.247 85.296-42.555 120.089H169.94c-50.802-34.793-42.555-120.089-42.555-120.089m47.369 0s-5.061 85.296 26.115 120.089M325.246 290.03s5.061 85.296-26.115 120.089m-75.71-120.089s-1.787 85.296 9.225 120.089m43.933-120.089s1.787 85.296-9.225 120.089M375.032 290.03H124.968a8.84 8.84 0 01-8.84-8.84v-9.007a8.84 8.84 0 018.84-8.84h250.064a8.84 8.84 0 018.84 8.84v9.007a8.84 8.84 0 01-8.84 8.84z" fill="none" display="block"/></g></svg>